<svg width="563" height="376" viewBox="0 0 563 376" fill="none" xmlns="http://www.w3.org/2000/svg">
<path d="M83.0815 260.143C85.2281 260.398 86.7711 262.301 86.523 264.389C86.4729 264.809 86.3635 265.219 86.1763 265.59C80.6782 275.722 84.69 288.337 95.1556 293.76C102.318 297.46 111.06 296.919 117.61 292.307C119.379 291.106 121.854 291.514 123.102 293.243C124.348 294.942 123.978 297.327 122.235 298.56C109.196 307.707 90.9188 304.774 81.4417 291.986C74.8853 283.192 74.037 271.544 79.2351 262.001C79.9997 260.677 81.5078 259.956 83.0815 260.143ZM160.609 36.1324C150.054 34.5943 139.31 36.6206 130.154 41.882C140.641 45.1908 149.649 51.9359 155.621 60.9735C156.773 62.7751 156.201 65.1365 154.357 66.2437C152.549 67.3004 150.202 66.7933 149.011 65.1011C137.193 47.1256 112.699 41.8132 94.3402 53.205C80.0565 62.0942 73.2405 78.8975 77.4245 94.9513C54.5395 96.3789 37.3116 115.586 38.9275 137.883C39.2698 142.554 40.4392 147.125 42.3658 151.419C23.4079 157.859 13.4852 178.104 20.2198 196.633C20.8307 198.315 21.5939 199.957 22.4491 201.554C34.2748 190.906 50.5211 186.264 66.4546 188.919C67.5182 172.645 81.9165 160.385 98.6409 161.495C101.172 161.686 103.668 162.181 106.101 162.948C108.134 163.642 109.21 165.831 108.507 167.835C107.815 169.759 105.657 170.8 103.669 170.196C91.8487 166.391 79.19 172.592 75.3299 184.047C74.6044 186.246 74.2474 188.519 74.236 190.804C85.9415 194.625 95.9282 202.361 102.398 212.615C103.545 214.416 103.004 216.781 101.163 217.889C99.3415 219.024 96.9124 218.482 95.7349 216.677C95.7384 216.648 95.7114 216.62 95.6893 216.588C82.875 196.233 55.5965 189.715 34.7486 202.057C13.9228 214.432 7.40387 240.954 20.2186 261.304C25.5854 269.817 33.786 276.272 43.4307 279.591C38.9033 299.831 52.0108 319.907 72.7751 324.607C87.3521 347.934 118.492 355.418 142.324 341.399C145.568 339.499 148.565 337.232 151.28 334.648L157.952 278.531C153.211 258.376 133.704 244.818 112.638 247.028C110.465 247.252 108.531 245.72 108.285 243.633C108.042 241.513 109.601 239.641 111.744 239.414C131.048 237.392 149.857 246.57 159.819 262.829L175.203 133.453C167.316 112.696 143.664 102.008 122.428 109.559C113.823 112.63 106.55 118.398 101.765 125.962C100.621 127.774 98.2078 128.303 96.3377 127.18C94.4981 126.058 93.9108 123.702 95.0513 121.915C109.222 99.6068 139.334 92.7983 162.368 106.716C168.051 110.16 172.964 114.724 176.796 120.063L185.391 47.7742C178.502 41.564 169.875 37.4878 160.609 36.1324Z" fill="#FBB6CE"/>
<path d="M210.849 158.917C228.353 160.547 241.292 175.694 239.731 192.725C239.694 193.033 239.658 193.337 239.621 193.646C267.988 198.345 287.192 224.483 282.552 252.048C282.337 253.349 282.069 254.614 281.746 255.873C281.327 257.94 279.255 259.278 277.132 258.827C275.005 258.405 273.62 256.377 274.044 254.311C274.083 254.201 274.093 254.118 274.136 254.009C279.918 230.986 265.404 207.637 241.72 201.855C228.273 198.562 214.042 201.614 203.317 210.077C201.696 211.494 199.221 211.339 197.757 209.754C196.319 208.172 196.433 205.756 198.05 204.339C198.145 204.266 198.241 204.193 198.34 204.12C207.78 196.691 219.625 192.734 231.787 192.938C233.48 180.156 224.229 168.384 211.091 166.653C209.235 166.402 207.381 166.38 205.534 166.528C203.367 166.693 201.469 165.115 201.312 163.006C201.149 160.954 202.664 159.186 204.729 158.925C206.75 158.743 208.811 158.73 210.849 158.917ZM220.025 43.1974C210.696 42.3711 201.357 44.2816 193.204 48.703L189.804 77.2904C196.871 74.4592 204.806 74.583 211.806 77.6758C213.725 78.6391 214.523 80.9352 213.544 82.8215C212.642 84.5773 210.488 85.3648 208.572 84.63C202.035 81.7655 194.433 82.5262 188.666 86.6104L164.169 292.621C173.415 284.886 186.361 282.868 197.688 287.434C199.643 288.313 200.501 290.616 199.607 292.517C198.73 294.276 196.652 295.157 194.76 294.48C182.127 289.45 167.772 295.251 162.658 307.516C162.539 307.785 162.448 308.082 162.329 308.351L159.092 335.576C174.103 358.642 205.365 365.579 228.934 351.106C232.155 349.144 235.1 346.841 237.762 344.225C254.848 344.478 270.019 333.777 275.097 317.92C248.765 321.198 223.692 305.656 215.513 280.998C214.912 278.979 216.148 276.866 218.219 276.297C220.194 275.767 222.278 276.805 222.981 278.697C230.96 302.849 257.48 316.252 282.233 308.637C306.99 301.023 320.58 275.282 312.601 251.13C311.576 248.047 310.245 245.091 308.577 242.269C325.276 231.411 329.666 209.376 318.406 193.047C315.659 189.053 312.094 185.634 307.936 182.997C321.578 165.138 317.686 139.808 299.261 126.408C280.832 113.012 254.815 116.636 241.2 134.494C240.007 136.245 237.567 136.745 235.763 135.571C233.927 134.419 233.424 132.048 234.595 130.265C234.694 130.163 234.766 130.062 234.835 129.956C247.389 113.184 269.656 106.233 290.002 112.776C296 92.3432 283.832 70.9673 262.812 64.9948C260.175 64.2334 257.502 63.7719 254.769 63.561C246.951 51.9888 234.149 44.4797 220.025 43.1974Z" fill="#FBB6CE"/>
<path d="M225.445 50.3629C224.955 44.8618 229.014 39.9755 234.512 39.4489L523.156 11.8019C528.654 11.2754 533.508 15.308 533.998 20.8091L562.113 336.484C562.603 341.985 558.544 346.871 553.046 347.398L264.402 375.045C258.904 375.571 254.05 371.539 253.56 366.038L225.445 50.3629Z" fill="#4A5568"/>
<g filter="url(#filter0_d)">
<rect width="309.965" height="336.924" rx="10" transform="matrix(0.995489 -0.0948367 0.0893072 0.996001 210 29.5879)" fill="#C4C4C4"/>
</g>
<line y1="-0.5" x2="336.155" y2="-0.5" transform="matrix(0.0847723 0.996422 -0.995773 0.091608 257.048 25.5039)" stroke="#4A5568"/>
<ellipse rx="10.1069" ry="9.8482" transform="matrix(0.995439 -0.0953996 0.0887639 0.996053 236.366 64.599)" fill="#4A5568" fill-opacity="0.5"/>
<ellipse rx="10.1069" ry="9.8482" transform="matrix(0.995439 -0.0953996 0.0887639 0.996053 247.555 190.156)" fill="#4A5568" fill-opacity="0.5"/>
<ellipse rx="10.1069" ry="9.8482" transform="matrix(0.995439 -0.0953996 0.0887639 0.996053 259.794 327.49)" fill="#4A5568" fill-opacity="0.5"/>
<line y1="-0.5" x2="261.434" y2="-0.5" transform="matrix(0.995872 -0.0903956 0.0834969 0.996543 261.241 62.873)" stroke="#4A5568" stroke-opacity="0.5"/>
<line y1="-0.5" x2="261.434" y2="-0.5" transform="matrix(0.995872 -0.0903956 0.0834969 0.996543 264.037 94.2656)" stroke="#4A5568" stroke-opacity="0.5"/>
<line y1="-0.5" x2="261.434" y2="-0.5" transform="matrix(0.995872 -0.0903956 0.0834969 0.996543 266.835 125.654)" stroke="#4A5568" stroke-opacity="0.5"/>
<line y1="-0.5" x2="261.434" y2="-0.5" transform="matrix(0.995872 -0.0903956 0.0834969 0.996543 269.633 157.045)" stroke="#4A5568" stroke-opacity="0.5"/>
<line y1="-0.5" x2="262.782" y2="-0.5" transform="matrix(0.99587 -0.0904213 0.0835239 0.996541 271.088 188.562)" stroke="#4A5568" stroke-opacity="0.5"/>
<line y1="-0.5" x2="262.782" y2="-0.5" transform="matrix(0.99587 -0.0904213 0.0835239 0.996541 273.886 219.951)" stroke="#4A5568" stroke-opacity="0.5"/>
<line y1="-0.5" x2="262.782" y2="-0.5" transform="matrix(0.99587 -0.0904213 0.0835239 0.996541 276.684 251.342)" stroke="#4A5568" stroke-opacity="0.5"/>
<line y1="-0.5" x2="262.782" y2="-0.5" transform="matrix(0.99587 -0.0904213 0.0835239 0.996541 279.48 282.734)" stroke="#4A5568" stroke-opacity="0.5"/>
<line y1="-0.5" x2="262.782" y2="-0.5" transform="matrix(0.99587 -0.0904213 0.0835239 0.996541 282.277 314.121)" stroke="#4A5568" stroke-opacity="0.5"/>
<line y1="-0.5" x2="262.782" y2="-0.5" transform="matrix(0.99587 -0.0904213 0.0835239 0.996541 285.074 345.514)" stroke="#4A5568" stroke-opacity="0.5"/>
<defs>
<filter id="filter0_d" x="210.853" y="1.09375" width="345.952" height="372.168" filterUnits="userSpaceOnUse" color-interpolation-filters="sRGB">
<feFlood flood-opacity="0" result="BackgroundImageFix"/>
<feColorMatrix in="SourceAlpha" type="matrix" values="0 0 0 0 0 0 0 0 0 0 0 0 0 0 0 0 0 0 127 0"/>
<feOffset dx="5" dy="5"/>
<feGaussianBlur stdDeviation="2"/>
<feColorMatrix type="matrix" values="0 0 0 0 0 0 0 0 0 0 0 0 0 0 0 0 0 0 0.4 0"/>
<feBlend mode="normal" in2="BackgroundImageFix" result="effect1_dropShadow"/>
<feBlend mode="normal" in="SourceGraphic" in2="effect1_dropShadow" result="shape"/>
</filter>
</defs>
</svg>
