<?xml version="1.0" encoding="UTF-8"?>
<svg xmlns="http://www.w3.org/2000/svg" xmlns:xlink="http://www.w3.org/1999/xlink" width="375pt" height="374.999991pt" viewBox="0 0 375 374.999991" version="1.2">
<defs>
<clipPath id="clip1">
  <path d="M 50 37.5 L 187 37.5 L 187 332 L 50 332 Z M 50 37.5 "/>
</clipPath>
<clipPath id="clip2">
  <path d="M 193 37.5 L 329.78125 37.5 L 329.78125 331.488281 L 193 331.488281 Z M 193 37.5 "/>
</clipPath>
</defs>
<g id="surface1">
<g clip-path="url(#clip1)" clip-rule="nonzero">
<path style=" stroke:none;fill-rule:nonzero;fill:rgb(98.429871%,71.369934%,80.778503%);fill-opacity:1;" d="M 117.027344 253.136719 C 118.988281 253.136719 120.582031 254.726562 120.582031 256.683594 C 120.582031 257.078125 120.527344 257.46875 120.398438 257.832031 C 116.53125 267.804688 121.496094 279.027344 131.503906 282.890625 C 138.351562 285.523438 146.167969 284.0625 151.574219 279.078125 C 153.039062 277.773438 155.3125 277.878906 156.621094 279.339844 C 157.925781 280.773438 157.847656 283.019531 156.410156 284.351562 C 145.644531 294.242188 128.867188 293.539062 118.960938 282.757812 C 112.113281 275.347656 110.101562 264.671875 113.761719 255.277344 C 114.308594 253.96875 115.589844 253.136719 117.027344 253.136719 Z M 162.867188 37.5 C 153.195312 37.238281 143.734375 40.292969 136.050781 46.164062 C 145.851562 48.070312 154.6875 53.316406 161.035156 61.015625 C 162.265625 62.554688 162.003906 64.800781 160.460938 66.027344 C 158.945312 67.203125 156.777344 66.992188 155.523438 65.558594 C 142.953125 50.238281 120.320312 48.019531 105.003906 60.570312 C 93.089844 70.359375 88.75 86.644531 94.238281 101.027344 C 73.777344 104.863281 60.316406 124.515625 64.160156 144.953125 C 64.96875 149.234375 66.511719 153.332031 68.707031 157.089844 C 52.320312 165.128906 45.550781 184.9375 53.601562 201.328125 C 54.332031 202.816406 55.195312 204.25 56.136719 205.632812 C 65.648438 194.488281 79.785156 188.410156 94.421875 189.113281 C 93.636719 173.949219 105.292969 161.03125 120.476562 160.21875 C 122.777344 160.117188 125.078125 160.300781 127.351562 160.742188 C 129.257812 161.160156 130.460938 163.066406 130.042969 164.996094 C 129.625 166.851562 127.792969 168.050781 125.9375 167.710938 C 114.882812 165.492188 104.144531 172.617188 101.894531 183.632812 C 101.476562 185.746094 101.398438 187.886719 101.632812 190 C 112.585938 192.246094 122.410156 198.300781 129.335938 207.070312 C 130.5625 208.609375 130.328125 210.855469 128.789062 212.082031 C 127.269531 213.332031 125.023438 213.097656 123.769531 211.558594 C 123.769531 211.53125 123.742188 211.507812 123.71875 211.480469 C 109.996094 194.070312 84.726562 191.042969 67.269531 204.746094 C 49.835938 218.476562 46.804688 243.714844 60.527344 261.121094 C 66.273438 268.402344 74.351562 273.46875 83.394531 275.476562 C 81.484375 294.6875 95.441406 311.808594 114.648438 313.871094 C 130.277344 333.835938 159.128906 337.332031 179.09375 321.75 C 181.8125 319.636719 184.269531 317.210938 186.4375 314.523438 L 186.4375 261.90625 C 180.007812 243.792969 160.984375 233.402344 142.246094 237.761719 C 140.3125 238.207031 138.40625 237.003906 137.960938 235.101562 C 137.515625 233.167969 138.71875 231.265625 140.625 230.820312 C 157.796875 226.828125 175.722656 233.246094 186.4375 247.183594 L 186.4375 125.875 C 177.109375 107.550781 154.660156 100.269531 136.339844 109.585938 C 128.917969 113.371094 122.984375 119.503906 119.484375 127.023438 C 118.648438 128.824219 116.53125 129.578125 114.726562 128.746094 C 112.949219 127.910156 112.167969 125.796875 113.003906 124.019531 C 123.378906 101.835938 149.773438 92.230469 172.011719 102.566406 C 177.5 105.125 182.414062 108.804688 186.4375 113.320312 L 186.4375 45.539062 C 179.566406 40.554688 171.359375 37.734375 162.867188 37.5 "/>
</g>
<g clip-path="url(#clip2)" clip-rule="nonzero">
<path style=" stroke:none;fill-rule:nonzero;fill:rgb(98.429871%,71.369934%,80.778503%);fill-opacity:1;" d="M 221.273438 145.5 C 237.214844 145.082031 250.492188 157.664062 250.910156 173.582031 C 250.910156 173.871094 250.910156 174.15625 250.910156 174.445312 C 276.964844 175.671875 297.0625 197.726562 295.835938 223.722656 C 295.78125 224.949219 295.675781 226.148438 295.519531 227.347656 C 295.363281 229.304688 293.640625 230.769531 291.679688 230.585938 C 289.71875 230.429688 288.253906 228.707031 288.414062 226.75 C 288.4375 226.644531 288.4375 226.566406 288.464844 226.460938 C 291.207031 204.539062 275.632812 184.546875 253.679688 181.804688 C 241.214844 180.238281 228.722656 184.625 219.96875 193.628906 C 218.660156 195.117188 216.414062 195.246094 214.925781 193.941406 C 213.460938 192.636719 213.304688 190.390625 214.609375 188.902344 C 214.6875 188.824219 214.765625 188.746094 214.847656 188.667969 C 222.554688 180.761719 232.800781 175.800781 243.777344 174.652344 C 243.933594 162.648438 234.339844 152.78125 222.320312 152.625 C 220.621094 152.597656 218.949219 152.78125 217.300781 153.121094 C 215.367188 153.511719 213.488281 152.261719 213.121094 150.328125 C 212.753906 148.449219 213.929688 146.648438 215.761719 146.179688 C 217.5625 145.789062 219.417969 145.550781 221.273438 145.5 Z M 217.144531 37.5 C 208.652344 37.761719 200.445312 40.554688 193.574219 45.539062 L 193.574219 72.34375 C 199.636719 68.949219 206.796875 68.191406 213.433594 70.28125 C 215.265625 70.960938 216.230469 72.996094 215.550781 74.847656 C 214.925781 76.570312 213.070312 77.535156 211.265625 77.066406 C 205.070312 75.136719 198.304688 76.675781 193.546875 81.085938 L 193.546875 274.25 C 201.046875 266.082031 212.492188 262.792969 223.183594 265.769531 C 225.039062 266.367188 226.058594 268.402344 225.457031 270.257812 C 224.855469 271.980469 223.078125 273.023438 221.300781 272.605469 C 209.382812 269.34375 197.074219 276.285156 193.78125 288.1875 C 193.703125 288.449219 193.652344 288.734375 193.574219 288.996094 L 193.574219 314.523438 C 209.566406 334.199219 238.46875 337.175781 258.148438 321.203125 C 260.839844 319.035156 263.246094 316.582031 265.363281 313.871094 C 280.78125 312.226562 293.300781 300.664062 296.175781 285.445312 C 272.808594 291.371094 248.558594 279.757812 238.550781 257.859375 C 237.792969 256.058594 238.679688 253.96875 240.484375 253.214844 C 242.207031 252.507812 244.195312 253.238281 245.03125 254.910156 C 254.804688 276.363281 280.128906 285.839844 301.609375 276.078125 C 323.09375 266.316406 332.578125 241.023438 322.804688 219.570312 C 321.550781 216.832031 320.035156 214.246094 318.230469 211.820312 C 332.109375 199.945312 333.703125 179.089844 321.8125 165.230469 C 318.910156 161.839844 315.332031 159.070312 311.304688 157.089844 C 321.679688 139.078125 315.460938 116.085938 297.429688 105.722656 C 279.394531 95.363281 256.347656 101.574219 245.996094 119.582031 C 245.109375 121.332031 242.964844 122.0625 241.214844 121.175781 C 239.4375 120.3125 238.730469 118.175781 239.59375 116.398438 C 239.671875 116.292969 239.726562 116.191406 239.777344 116.085938 C 249.289062 99.199219 268.601562 90.324219 287.628906 94.136719 C 290.84375 74.585938 277.59375 56.160156 258.019531 52.949219 C 255.5625 52.535156 253.105469 52.402344 250.621094 52.507812 C 242.339844 42.667969 230.003906 37.132812 217.144531 37.5 "/>
</g>
</g>
</svg>
