<svg width="318" height="325" viewBox="0 0 318 325" fill="none" xmlns="http://www.w3.org/2000/svg">
<g filter="url(#filter0_d)">
<path d="M115.152 203.366C116.331 203.366 117.288 204.313 117.288 205.478C117.288 205.712 117.255 205.945 117.178 206.161C114.854 212.097 117.838 218.778 123.851 221.077C127.966 222.644 132.663 221.775 135.912 218.808C136.792 218.031 138.158 218.094 138.945 218.964C139.729 219.817 139.682 221.154 138.818 221.947C132.349 227.834 122.267 227.416 116.314 220.998C112.199 216.587 110.99 210.233 113.19 204.641C113.518 203.862 114.288 203.366 115.152 203.366ZM142.698 75.0102C136.886 74.8544 131.201 76.6727 126.584 80.1674C132.473 81.3021 137.783 84.4248 141.597 89.0077C142.337 89.9238 142.179 91.2608 141.252 91.9909C140.341 92.6908 139.039 92.5652 138.285 91.7119C130.731 82.5926 117.131 81.2719 107.927 88.7427C100.768 94.5695 98.1599 104.263 101.458 112.824C89.1626 115.108 81.0737 126.806 83.3835 138.971C83.8694 141.519 84.7966 143.958 86.1158 146.195C76.2687 150.98 72.2008 162.771 77.0386 172.528C77.4776 173.414 77.9964 174.267 78.5621 175.09C84.2778 168.456 92.7728 164.838 101.568 165.257C101.096 156.231 108.101 148.541 117.225 148.058C118.607 147.997 119.99 148.106 121.356 148.369C122.502 148.618 123.225 149.753 122.973 150.901C122.722 152.006 121.621 152.72 120.506 152.517C113.864 151.197 107.411 155.438 106.059 161.995C105.807 163.253 105.761 164.527 105.901 165.785C112.483 167.122 118.387 170.726 122.549 175.946C123.286 176.862 123.145 178.199 122.22 178.929C121.307 179.673 119.957 179.533 119.204 178.617C119.204 178.601 119.187 178.587 119.173 178.571C110.927 168.208 95.7421 166.406 85.2519 174.562C74.7758 182.735 72.9543 197.758 81.2005 208.119C84.6534 212.453 89.5076 215.469 94.9417 216.664C93.7939 228.099 102.181 238.29 113.723 239.518C123.114 251.402 140.452 253.483 152.449 244.208C154.083 242.95 155.559 241.506 156.862 239.906V208.586C152.998 197.805 141.567 191.62 130.307 194.215C129.145 194.48 127.999 193.763 127.732 192.631C127.464 191.48 128.187 190.348 129.332 190.083C139.651 187.706 150.423 191.527 156.862 199.823V127.615C151.256 116.707 137.766 112.373 126.757 117.919C122.297 120.172 118.732 123.822 116.629 128.298C116.126 129.37 114.854 129.819 113.77 129.324C112.702 128.826 112.232 127.568 112.734 126.51C118.969 113.306 134.83 107.588 148.193 113.741C151.491 115.264 154.444 117.454 156.862 120.142V79.7954C152.733 76.8285 147.801 75.1497 142.698 75.0102Z" fill="#FBB6CE"/>
<path d="M177.795 139.296C187.375 139.048 195.353 146.537 195.605 156.012C195.605 156.184 195.605 156.354 195.605 156.526C211.261 157.256 223.338 170.384 222.601 185.858C222.568 186.588 222.505 187.302 222.411 188.016C222.317 189.181 221.282 190.052 220.104 189.943C218.925 189.85 218.045 188.825 218.141 187.66C218.155 187.597 218.155 187.551 218.172 187.488C219.82 174.439 210.461 162.539 197.269 160.907C189.778 159.974 182.272 162.585 177.011 167.945C176.225 168.831 174.875 168.907 173.981 168.131C173.101 167.354 173.007 166.017 173.791 165.131C173.838 165.085 173.885 165.038 173.934 164.992C178.565 160.286 184.722 157.333 191.318 156.649C191.412 149.504 185.647 143.631 178.424 143.538C177.403 143.521 176.399 143.631 175.408 143.833C174.246 144.065 173.117 143.321 172.896 142.17C172.676 141.052 173.382 139.98 174.483 139.701C175.565 139.468 176.68 139.327 177.795 139.296ZM175.314 75.0102C170.211 75.166 165.279 76.8285 161.15 79.7954V95.7507C164.794 93.7301 169.096 93.2791 173.084 94.523C174.185 94.9276 174.765 96.139 174.357 97.2411C173.981 98.2665 172.866 98.8409 171.782 98.5618C168.059 97.4132 163.993 98.3293 161.134 100.954V215.934C165.641 211.072 172.519 209.114 178.943 210.886C180.058 211.242 180.671 212.453 180.309 213.558C179.948 214.583 178.88 215.204 177.812 214.955C170.65 213.014 163.254 217.145 161.275 224.23C161.228 224.386 161.197 224.556 161.15 224.711V239.906C170.76 251.618 188.128 253.39 199.954 243.882C201.571 242.592 203.017 241.132 204.29 239.518C213.555 238.539 221.078 231.657 222.805 222.598C208.764 226.125 194.191 219.212 188.178 206.178C187.722 205.106 188.255 203.862 189.34 203.413C190.375 202.992 191.569 203.427 192.072 204.422C197.945 217.192 213.163 222.833 226.07 217.022C238.981 211.212 244.68 196.156 238.807 183.386C238.054 181.756 237.143 180.217 236.058 178.773C244.398 171.705 245.356 159.291 238.211 151.041C236.467 149.023 234.317 147.374 231.897 146.195C238.131 135.474 234.394 121.788 223.559 115.619C212.721 109.453 198.872 113.15 192.652 123.869C192.119 124.911 190.83 125.345 189.778 124.818C188.71 124.304 188.286 123.032 188.804 121.974C188.851 121.911 188.884 121.851 188.915 121.788C194.63 111.736 206.236 106.453 217.669 108.723C219.601 97.0854 211.639 86.1175 199.877 84.2063C198.4 83.9598 196.924 83.8807 195.431 83.9435C190.454 78.0864 183.042 74.7917 175.314 75.0102Z" fill="#FBB6CE"/>
</g>
<defs>
<filter id="filter0_d" x="0" y="0" width="318" height="325" filterUnits="userSpaceOnUse" color-interpolation-filters="sRGB">
<feFlood flood-opacity="0" result="BackgroundImageFix"/>
<feColorMatrix in="SourceAlpha" type="matrix" values="0 0 0 0 0 0 0 0 0 0 0 0 0 0 0 0 0 0 127 0"/>
<feOffset/>
<feGaussianBlur stdDeviation="37.5"/>
<feColorMatrix type="matrix" values="0 0 0 0 1 0 0 0 0 0.9 0 0 0 0 0 0 0 0 0.32 0"/>
<feBlend mode="normal" in2="BackgroundImageFix" result="effect1_dropShadow"/>
<feBlend mode="normal" in="SourceGraphic" in2="effect1_dropShadow" result="shape"/>
</filter>
</defs>
</svg>
