<svg width="472" height="500" viewBox="0 0 472 500" fill="none" xmlns="http://www.w3.org/2000/svg">
<path d="M471.44 227.685C471.44 353.435 365.908 455.364 235.72 455.364C105.526 455.364 2.90669e-07 353.435 2.90669e-07 227.685C-0.00639518 101.935 105.526 0 235.72 0C365.908 0 471.44 101.935 471.44 227.685Z" fill="#2D3748"/>
<path d="M373.231 455.987C361.585 464.393 349.068 471.761 335.848 477.92C333.833 478.864 331.812 479.765 329.784 480.647C301.054 493.088 269.235 500 235.72 500C202.206 500 170.386 493.088 141.669 480.647C139.616 479.765 137.588 478.864 135.593 477.92C122.366 471.749 109.849 464.393 98.2024 455.987C100.243 411.975 124.457 373.528 160.313 350.825C181.969 337.094 207.879 329.121 235.72 329.121C239.967 329.121 244.169 329.312 248.294 329.67C271.364 331.688 292.771 339.18 311.127 350.825C327.635 361.279 341.668 375.065 352.208 391.184C364.571 410.105 372.125 432.241 373.231 455.987Z" fill="#E2E8F0"/>
<path d="M311.127 350.825C309.023 366.178 302.013 380.051 291.645 390.894C277.747 405.433 257.843 414.554 235.72 414.554C200.28 414.554 170.501 391.141 162.052 359.452C161.304 356.638 160.715 353.75 160.312 350.825C181.969 337.094 207.879 329.121 235.72 329.121C239.967 329.121 244.169 329.293 248.313 329.67C249.03 329.732 249.752 329.799 250.456 329.873C250.91 329.917 251.358 329.96 251.793 330.022C252.292 330.065 252.784 330.139 253.264 330.194C253.564 330.225 253.878 330.268 254.178 330.312C254.613 330.355 255.067 330.429 255.515 330.484C255.86 330.528 256.206 330.583 256.564 330.626C256.865 330.67 257.165 330.713 257.466 330.774C257.978 330.849 258.47 330.935 258.982 331.003C261.175 331.367 263.35 331.774 265.499 332.237L266.938 332.539C267.207 332.613 267.495 332.675 267.763 332.743C268.275 332.86 268.799 332.978 269.292 333.107C269.388 333.12 269.458 333.138 269.522 333.15C270.168 333.311 270.808 333.471 271.441 333.644C272.132 333.805 272.81 333.99 273.468 334.181C274.236 334.385 274.984 334.601 275.752 334.817C276.334 334.996 276.922 335.168 277.504 335.353C277.881 335.471 278.272 335.588 278.63 335.705C279.244 335.89 279.864 336.094 280.459 336.298C281.214 336.545 281.949 336.791 282.685 337.051C282.742 337.081 282.787 337.094 282.832 337.106C283.599 337.371 284.348 337.643 285.102 337.921C285.652 338.137 286.228 338.34 286.797 338.575C288.281 339.136 289.739 339.735 291.179 340.34L293.072 341.167C293.641 341.414 294.21 341.673 294.779 341.938C295.304 342.185 295.816 342.413 296.327 342.66C296.807 342.876 297.274 343.111 297.734 343.345C298.035 343.487 298.355 343.635 298.655 343.789C299.896 344.4 301.118 345.042 302.314 345.678C302.749 345.906 303.203 346.153 303.618 346.388C303.906 346.548 304.175 346.69 304.444 346.838L305.467 347.418L306.503 348.023L307.181 348.418C307.821 348.782 308.454 349.158 309.087 349.547C309.778 349.967 310.449 350.386 311.127 350.825Z" fill="#FBD5C0"/>
<path d="M269.234 292.661V356.347C269.234 372.454 255.592 385.648 238.918 385.648H232.522C215.848 385.648 202.219 372.454 202.219 356.347V292.661C202.219 276.554 215.848 263.391 232.522 263.391H238.918C255.592 263.391 269.234 276.554 269.234 292.661Z" fill="#FBD5C0"/>
<path d="M269.234 292.661V326.368C259.27 331.718 248.704 334.816 237.971 334.816C225.32 334.816 213.251 331.428 202.219 325.498V292.661C202.219 276.554 215.848 263.391 232.522 263.391H238.918C255.592 263.391 269.234 276.554 269.234 292.661Z" fill="#FBB6CE"/>
<path d="M317.446 268.1C317.446 268.1 333.142 262.941 343.171 246.038C354.069 227.685 347.226 216.243 345.064 213.763C339.16 206.993 330.053 211.343 328.55 213.763C327.053 216.188 305.32 254.313 317.446 268.1Z" fill="#FBD5C0"/>
<path d="M332.829 219.78C332.829 219.78 342.794 221.014 339.301 234.541C335.784 248.081 326.586 253.431 314.07 260.343C301.566 267.261 320.325 222.538 332.829 219.78Z" fill="#FBB6CE"/>
<path d="M158.074 268.1C158.074 268.1 142.379 262.941 132.35 246.038C121.438 227.685 128.282 216.243 130.444 213.763C136.341 206.993 145.455 211.343 146.952 213.763C148.455 216.188 170.201 254.313 158.074 268.1Z" fill="#FBD5C0"/>
<path d="M142.679 219.78C142.679 219.78 132.727 221.014 136.219 234.541C139.718 248.081 148.934 253.431 161.438 260.343C173.955 267.261 155.196 222.538 142.679 219.78Z" fill="#FBB6CE"/>
<path d="M332.829 210.851C332.829 155.285 290.366 110.224 237.971 110.224C185.589 110.224 143.095 155.285 143.095 210.851C143.095 266.422 185.589 324.511 237.971 324.511C287.2 324.511 332.829 265.959 332.829 210.851Z" fill="#FBD5C0"/>
<path d="M246.51 170.274C246.51 170.274 264.354 225.728 331.479 220.23C331.479 220.23 343.203 203.864 339.237 168.275C334.767 128.156 297.978 94.4061 237.971 106.483C237.971 106.483 232.49 135 246.51 170.274Z" fill="#4A556A"/>
<path d="M249.509 110.224C249.509 110.224 252.004 99.7325 242.998 91.5126C233.993 83.2926 114.742 100.165 143.095 210.851C143.095 210.851 170.891 144.659 244.501 138.858L249.509 110.224Z" fill="#4A556A"/>
<path d="M69.2098 282.195C68.826 282.182 68.4806 282.065 68.1736 281.843L60.78 274.715H47.6173C47.0609 274.715 46.5108 274.666 45.9672 274.567C45.4235 274.462 44.8927 274.314 44.381 274.111C43.8629 273.913 43.3768 273.666 42.9099 273.37C42.4494 273.08 42.0209 272.747 41.6244 272.376C41.2278 272 40.876 271.593 40.569 271.155C40.2557 270.716 39.9934 270.254 39.7824 269.766C39.5649 269.279 39.405 268.773 39.2899 268.254C39.1811 267.736 39.1236 267.211 39.1236 266.681V225.544C39.1172 225.013 39.1684 224.482 39.2771 223.958C39.3794 223.433 39.5393 222.921 39.7504 222.427C39.9614 221.933 40.2237 221.464 40.5307 221.02C40.8441 220.57 41.1958 220.156 41.5924 219.78C41.9825 219.403 42.4175 219.064 42.878 218.761C43.3449 218.465 43.8373 218.212 44.3554 218.009C44.8735 217.799 45.4043 217.644 45.9544 217.54C46.5044 217.435 47.0609 217.385 47.6237 217.385H90.8023C91.3651 217.385 91.9215 217.435 92.4716 217.54C93.0152 217.644 93.5525 217.805 94.0705 218.009C94.5886 218.212 95.0811 218.465 95.5416 218.761C96.0085 219.064 96.437 219.403 96.8336 219.78C97.2301 220.162 97.5819 220.57 97.8889 221.02C98.1959 221.464 98.4581 221.933 98.6692 222.427C98.8802 222.921 99.0401 223.433 99.1489 223.958C99.2512 224.482 99.3024 225.013 99.296 225.544V266.681C99.296 267.211 99.2384 267.736 99.1297 268.254C99.021 268.773 98.8547 269.279 98.6436 269.766C98.4261 270.254 98.1639 270.716 97.8569 271.155C97.5435 271.593 97.1917 272 96.7952 272.376C96.405 272.747 95.9765 273.08 95.5096 273.37C95.0491 273.666 94.5566 273.913 94.045 274.111C93.5269 274.314 93.0024 274.462 92.4524 274.567C91.9087 274.666 91.3587 274.715 90.8023 274.715H77.6395L70.1756 281.843C69.9005 282.065 69.5743 282.182 69.2098 282.195Z" fill="white"/>
<path d="M376.391 209.616H432.54C437.292 209.616 441.418 213.436 441.418 217.972V248.945C441.418 253.53 437.292 257.184 432.54 257.184H397.99L383.669 271.069C383.554 271.174 383.439 271.229 383.266 271.229C383.209 271.229 383.266 271.229 383.209 271.174C382.979 271.069 382.979 270.902 382.979 270.68V257.184H376.391C371.639 257.184 368.083 253.53 368.083 248.945V217.972C368.083 213.436 371.639 209.616 376.391 209.616ZM422.799 238.985C426.291 238.985 429.099 236.276 429.099 232.906C429.099 229.531 426.291 226.821 422.799 226.821C419.301 226.821 416.499 229.531 416.499 232.906C416.499 236.276 419.301 238.985 422.799 238.985ZM404.462 238.985C407.961 238.985 410.769 236.276 410.769 232.906C410.769 229.531 407.961 226.821 404.462 226.821C400.97 226.821 398.162 229.531 398.162 232.906C398.162 236.276 400.97 238.985 404.462 238.985ZM386.189 238.985C389.681 238.985 392.489 236.276 392.489 232.906C392.489 229.531 389.681 226.821 386.189 226.821C382.697 226.821 379.889 229.531 379.889 232.906C379.889 236.276 382.755 238.985 386.189 238.985Z" fill="white"/>
<path d="M145.455 63.9023H86.4021C85.6665 63.9023 84.963 64.0381 84.285 64.3096C83.6007 64.5812 83.0059 64.97 82.4878 65.476C81.9697 65.982 81.5668 66.5621 81.2854 67.2286C81.0039 67.8889 80.8696 68.5739 80.8696 69.2898V104.268C80.8696 104.984 81.0039 105.669 81.2854 106.329C81.5668 106.989 81.9697 107.576 82.4878 108.082C83.0059 108.588 83.6007 108.977 84.285 109.248C84.963 109.52 85.6665 109.655 86.4021 109.655H105.922L114.883 118.338C115.158 118.628 115.491 118.77 115.893 118.776C116.309 118.77 116.667 118.628 116.962 118.338L125.865 109.655H145.455C146.184 109.655 146.888 109.513 147.566 109.242C148.237 108.97 148.832 108.582 149.35 108.076C149.862 107.569 150.258 106.983 150.534 106.329C150.809 105.669 150.943 104.984 150.936 104.268V69.2898C150.943 68.5739 150.809 67.8889 150.534 67.2286C150.258 66.5745 149.862 65.9882 149.35 65.4822C148.832 64.9761 148.237 64.5873 147.566 64.3158C146.888 64.0381 146.184 63.9023 145.455 63.9023ZM129.645 88.7228C129.625 88.7598 129.6 88.7906 129.568 88.8215C129.523 88.8894 129.472 88.9511 129.414 89.0128L118.388 101.725C117.735 102.472 116.904 102.855 115.893 102.873C114.921 102.842 114.115 102.472 113.482 101.75L102.437 89.0066C102.347 88.9326 102.27 88.8462 102.206 88.7536C101.055 87.3219 100.486 85.6927 100.492 83.8722C100.511 83.2921 100.595 82.7244 100.735 82.1566C100.876 81.5951 101.068 81.052 101.317 80.5275C101.567 79.9967 101.867 79.503 102.213 79.034C102.564 78.565 102.961 78.133 103.396 77.7381C103.831 77.3493 104.304 76.9976 104.809 76.6952C105.315 76.3928 105.852 76.1398 106.408 75.9423C106.965 75.7386 107.54 75.5905 108.129 75.498C108.717 75.4116 109.306 75.3745 109.901 75.3992C112.12 75.3807 114.115 76.0163 115.893 77.2999C117.684 76.0287 119.68 75.3931 121.893 75.3931C122.488 75.3684 123.082 75.3992 123.671 75.4918C124.259 75.5844 124.835 75.7325 125.398 75.9299C125.954 76.1336 126.491 76.3804 126.997 76.6828C127.508 76.9852 127.982 77.337 128.423 77.7319C128.864 78.1207 129.254 78.5527 129.613 79.0217C129.964 79.4907 130.265 79.9906 130.514 80.5151C130.77 81.0397 130.969 81.5827 131.109 82.1505C131.25 82.7121 131.333 83.286 131.365 83.8661C131.365 85.6742 130.796 87.2911 129.657 88.7228H129.645Z" fill="white"/>
<path d="M368.454 137.401C368.07 137.389 367.725 137.278 367.418 137.05L360.024 129.922H346.861C346.305 129.922 345.755 129.873 345.211 129.774C344.661 129.669 344.137 129.521 343.619 129.323C343.107 129.12 342.615 128.873 342.154 128.583C341.694 128.287 341.259 127.953 340.869 127.583C340.472 127.213 340.12 126.805 339.807 126.367C339.5 125.923 339.238 125.46 339.02 124.973C338.809 124.485 338.643 123.979 338.534 123.461C338.425 122.942 338.368 122.418 338.368 121.893V80.7562C338.361 80.2194 338.412 79.6886 338.521 79.1641C338.624 78.6395 338.783 78.1335 338.995 77.6336C339.206 77.1399 339.468 76.6709 339.775 76.2266C340.088 75.7823 340.44 75.3688 340.83 74.9862C341.227 74.6098 341.655 74.2704 342.122 73.9741C342.589 73.6718 343.081 73.4187 343.6 73.2151C344.118 73.0114 344.648 72.8572 345.199 72.7522C345.749 72.6473 346.305 72.5918 346.868 72.5918H390.046C390.603 72.5918 391.159 72.6473 391.709 72.7522C392.259 72.8572 392.797 73.0114 393.308 73.2151C393.826 73.4249 394.319 73.6718 394.786 73.9741C395.253 74.2704 395.681 74.6098 396.078 74.9862C396.468 75.3688 396.82 75.7823 397.133 76.2266C397.44 76.6709 397.702 77.1399 397.913 77.6398C398.124 78.1335 398.284 78.6395 398.387 79.1641C398.495 79.6886 398.547 80.2194 398.54 80.7562V121.893C398.54 122.418 398.483 122.942 398.374 123.461C398.259 123.979 398.099 124.485 397.888 124.973C397.67 125.46 397.408 125.923 397.095 126.367C396.788 126.805 396.436 127.213 396.039 127.583C395.643 127.953 395.214 128.287 394.754 128.583C394.287 128.873 393.801 129.12 393.289 129.323C392.771 129.521 392.24 129.669 391.697 129.774C391.153 129.873 390.603 129.922 390.046 129.922H376.884L369.42 137.05C369.138 137.272 368.818 137.389 368.454 137.401Z" fill="white"/>
</svg>
